<?xml version="1.0" encoding="UTF-8" standalone="no"?>
<!-- Created with Inkscape (http://www.inkscape.org/) -->

<svg
   version="1.1"
   id="svg2"
   width="695.09198"
   height="868.12665"
   viewBox="0 0 695.09198 868.12665"
   sodipodi:docname="Limestone Pie.ai"
   xmlns:inkscape="http://www.inkscape.org/namespaces/inkscape"
   xmlns:sodipodi="http://sodipodi.sourceforge.net/DTD/sodipodi-0.dtd"
   xmlns="http://www.w3.org/2000/svg"
   xmlns:svg="http://www.w3.org/2000/svg">
  <defs
     id="defs6">
    <clipPath
       clipPathUnits="userSpaceOnUse"
       id="clipPath32">
      <path
         d="M 0,651.095 H 521.319 V 0 H 0 Z"
         id="path30" />
    </clipPath>
    <clipPath
       clipPathUnits="userSpaceOnUse"
       id="clipPath156">
      <path
         d="M 42.9062,517.298 H 69.631 v -73.23 H 42.9062 Z"
         id="path154" />
    </clipPath>
    <clipPath
       clipPathUnits="userSpaceOnUse"
       id="clipPath160">
      <path
         d="M 41.5693,517.298 H 70.3584 V 439.205 H 41.5693 Z"
         id="path158" />
    </clipPath>
    <mask
       maskUnits="userSpaceOnUse"
       x="0"
       y="0"
       width="1"
       height="1"
       id="mask162">
      <g
         id="g180">
        <g
           clip-path="url(#clipPath156)"
           id="g178">
          <path
             d="M 41.569,517.298 H 70.358 V 439.205 H 41.569 Z"
             style="fill:#000000;fill-opacity:1;fill-rule:nonzero;stroke:none"
             id="path164" />
          <g
             id="g176">
            <g
               id="g166" />
            <g
               id="g174">
              <g
                 clip-path="url(#clipPath160)"
                 id="g172">
                <g
                   transform="translate(43.0225,490.4658)"
                   id="g170">
                  <path
                     d="m 0,0 c 0,0 -1.453,-37.956 5.926,-44.608 7.379,-6.653 14.422,10.173 14.422,10.173 0,0 3.745,12.466 5.367,23.255 z"
                     style="fill:#ffffff;fill-opacity:1;fill-rule:nonzero;stroke:none"
                     id="path168" />
                </g>
              </g>
            </g>
          </g>
        </g>
      </g>
    </mask>
    <clipPath
       clipPathUnits="userSpaceOnUse"
       id="clipPath188">
      <path
         d="M 42.9062,517.298 H 69.631 v -73.23 H 42.9062 Z"
         id="path186" />
    </clipPath>
    <clipPath
       clipPathUnits="userSpaceOnUse"
       id="clipPath192">
      <path
         d="M 45.3443,500.516 H 69.631 V 444.068 H 45.3443 Z"
         id="path190" />
    </clipPath>
    <clipPath
       clipPathUnits="userSpaceOnUse"
       id="clipPath196">
      <path
         d="M 45.3447,500.517 H 69.6309 V 444.068 H 45.3447 Z"
         id="path194" />
    </clipPath>
    <mask
       maskUnits="userSpaceOnUse"
       x="0"
       y="0"
       width="1"
       height="1"
       id="mask198">
      <g
         id="g216">
        <g
           clip-path="url(#clipPath192)"
           id="g214">
          <path
             d="M 45.345,500.517 H 69.631 V 444.069 H 45.345 Z"
             style="fill:#000000;fill-opacity:1;fill-rule:nonzero;stroke:none"
             id="path200" />
          <g
             id="g212">
            <g
               id="g202" />
            <g
               id="g210">
              <g
                 clip-path="url(#clipPath196)"
                 id="g208">
                <g
                   transform="translate(47.5508,472.292)"
                   id="g206">
                  <path
                     d="M 0,0 C 0,15.588 4.942,28.225 11.04,28.225 17.138,28.225 22.08,15.588 22.08,0 22.08,-15.587 17.138,-28.224 11.04,-28.224 4.942,-28.224 0,-15.587 0,0"
                     style="fill:#ffffff;fill-opacity:1;fill-rule:nonzero;stroke:none"
                     id="path204" />
                </g>
              </g>
            </g>
          </g>
        </g>
      </g>
    </mask>
    <clipPath
       clipPathUnits="userSpaceOnUse"
       id="clipPath220">
      <path
         d="M 45.3443,500.516 H 69.631 V 444.068 H 45.3443 Z"
         id="path218" />
    </clipPath>
    <clipPath
       clipPathUnits="userSpaceOnUse"
       id="clipPath224">
      <path
         d="m 47.551,472.292 c 0,15.588 4.942,28.224 11.04,28.224 6.097,0 11.04,-12.636 11.04,-28.224 0,-15.587 -4.943,-28.224 -11.04,-28.224 -6.098,0 -11.04,12.637 -11.04,28.224"
         id="path222" />
    </clipPath>
    <linearGradient
       x1="0"
       y1="0"
       x2="1"
       y2="0"
       gradientUnits="userSpaceOnUse"
       gradientTransform="matrix(0,56.447926,56.447926,0,58.590618,444.0683)"
       spreadMethod="pad"
       id="linearGradient234">
      <stop
         style="stop-opacity:1;stop-color:#dde261"
         offset="0"
         id="stop226" />
      <stop
         style="stop-opacity:1;stop-color:#dde261"
         offset="0.376161"
         id="stop228" />
      <stop
         style="stop-opacity:1;stop-color:#9aa41c"
         offset="0.729102"
         id="stop230" />
      <stop
         style="stop-opacity:1;stop-color:#9aa41c"
         offset="1"
         id="stop232" />
    </linearGradient>
    <clipPath
       clipPathUnits="userSpaceOnUse"
       id="clipPath368">
      <path
         d="m 105.256,506.97 h 94.317 v -86.558 h -94.317 z"
         id="path366" />
    </clipPath>
    <clipPath
       clipPathUnits="userSpaceOnUse"
       id="clipPath372">
      <path
         d="m 102.637,509.235 h 97.101 v -96.364 h -97.101 z"
         id="path370" />
    </clipPath>
    <mask
       maskUnits="userSpaceOnUse"
       x="0"
       y="0"
       width="1"
       height="1"
       id="mask374">
      <g
         id="g392">
        <g
           clip-path="url(#clipPath368)"
           id="g390">
          <path
             d="m 102.637,509.235 h 97.102 v -96.364 h -97.102 z"
             style="fill:#000000;fill-opacity:1;fill-rule:nonzero;stroke:none"
             id="path376" />
          <g
             id="g388">
            <g
               id="g378" />
            <g
               id="g386">
              <g
                 clip-path="url(#clipPath372)"
                 id="g384">
                <g
                   transform="translate(199.5723,486.6279)"
                   id="g382">
                  <path
                     d="m 0,0 c -1.348,-9.476 -4.655,-19.437 -10,-29.031 -16.587,-29.772 -46.513,-44.726 -66.842,-33.401 -14.364,8.003 -20.094,26.987 -16.367,47.94 C -93.119,-13.988 0.166,1.169 0,0"
                     style="fill:#ffffff;fill-opacity:1;fill-rule:nonzero;stroke:none"
                     id="path380" />
                </g>
              </g>
            </g>
          </g>
        </g>
      </g>
    </mask>
    <clipPath
       clipPathUnits="userSpaceOnUse"
       id="clipPath400">
      <path
         d="m 105.256,506.97 h 94.317 v -86.558 h -94.317 z"
         id="path398" />
    </clipPath>
    <clipPath
       clipPathUnits="userSpaceOnUse"
       id="clipPath404">
      <path
         d="m 109.464,506.97 h 63.471 v -76.611 h -63.471 z"
         id="path402" />
    </clipPath>
    <clipPath
       clipPathUnits="userSpaceOnUse"
       id="clipPath408">
      <path
         d="m 106.651,509.235 h 66.284 v -81.14 h -66.284 z"
         id="path406" />
    </clipPath>
    <mask
       maskUnits="userSpaceOnUse"
       x="0"
       y="0"
       width="1"
       height="1"
       id="mask410">
      <g
         id="g428">
        <g
           clip-path="url(#clipPath404)"
           id="g426">
          <path
             d="m 106.651,509.235 h 66.283 v -81.141 h -66.283 z"
             style="fill:#000000;fill-opacity:1;fill-rule:nonzero;stroke:none"
             id="path412" />
          <g
             id="g424">
            <g
               id="g414" />
            <g
               id="g422">
              <g
                 clip-path="url(#clipPath408)"
                 id="g420">
                <g
                   transform="translate(110.2422,473.2773)"
                   id="g418">
                  <path
                     d="M 0,0 C 3.59,20.999 18.578,35.958 33.477,33.411 48.375,30.863 57.542,11.775 53.951,-9.225 50.361,-30.224 35.373,-45.183 20.475,-42.636 5.576,-40.088 -3.591,-21 0,0"
                     style="fill:#ffffff;fill-opacity:1;fill-rule:nonzero;stroke:none"
                     id="path416" />
                </g>
              </g>
            </g>
          </g>
        </g>
      </g>
    </mask>
    <clipPath
       clipPathUnits="userSpaceOnUse"
       id="clipPath432">
      <path
         d="m 109.464,506.97 h 63.471 v -76.611 h -63.471 z"
         id="path430" />
    </clipPath>
    <clipPath
       clipPathUnits="userSpaceOnUse"
       id="clipPath436">
      <path
         d="m 110.243,473.277 c 3.59,20.999 18.578,35.958 33.476,33.411 14.899,-2.548 24.066,-21.635 20.475,-42.635 -3.59,-21 -18.578,-35.958 -33.476,-33.412 -14.899,2.548 -24.066,21.636 -20.475,42.636"
         id="path434" />
    </clipPath>
    <linearGradient
       x1="0"
       y1="0"
       x2="1"
       y2="0"
       gradientUnits="userSpaceOnUse"
       gradientTransform="matrix(0,76.611,76.611,0,137.21848,430.35931)"
       spreadMethod="pad"
       id="linearGradient446">
      <stop
         style="stop-opacity:1;stop-color:#dde261"
         offset="0"
         id="stop438" />
      <stop
         style="stop-opacity:1;stop-color:#dde261"
         offset="0.145511"
         id="stop440" />
      <stop
         style="stop-opacity:1;stop-color:#9aa41c"
         offset="0.729102"
         id="stop442" />
      <stop
         style="stop-opacity:1;stop-color:#9aa41c"
         offset="1"
         id="stop444" />
    </linearGradient>
    <clipPath
       clipPathUnits="userSpaceOnUse"
       id="clipPath508">
      <path
         d="m 323.99,345.335 h 47.811 V 271.702 H 323.99 Z"
         id="path506" />
    </clipPath>
    <clipPath
       clipPathUnits="userSpaceOnUse"
       id="clipPath512">
      <path
         d="m 332.522,271.702 -8.532,68.113 39.278,5.521 8.534,-68.115 z"
         id="path510" />
    </clipPath>
  </defs>
  <sodipodi:namedview
     id="namedview4"
     pagecolor="#ffffff"
     bordercolor="#000000"
     borderopacity="0.25"
     inkscape:showpageshadow="2"
     inkscape:pageopacity="0.0"
     inkscape:pagecheckerboard="0"
     inkscape:deskcolor="#d1d1d1"
     showgrid="false" />
  <g
     id="g10"
     inkscape:groupmode="layer"
     inkscape:label="Page 1"
     transform="matrix(1.3333333,0,0,-1.3333333,0,868.12667)">
    <g
       id="g26"
       transform="translate(-1.3122358e-6,-0.44829062)">
      <g
         id="g28"
         clip-path="url(#clipPath32)">
        <g
           id="g34"
           transform="translate(422.3728,211.366)">
          <path
             d="m 0,0 c 0,0 -4.22,95.297 -30.242,113.583 -26.023,18.286 -42.198,-1.406 -42.198,-1.406 l -7.385,24.263 c 0,0 8.616,20.923 34.11,35.517 31.667,18.127 81.407,5.626 108.66,-30.242 C 90.198,105.847 93.363,64.352 95.297,39.736 95.297,39.736 47.824,7.736 0,0"
             style="fill:#c7cecf;fill-opacity:1;fill-rule:nonzero;stroke:none"
             id="path36" />
        </g>
        <g
           id="g38"
           transform="translate(422.3728,211.366)">
          <path
             d="m 0,0 c 0,0 -4.22,95.297 -30.242,113.583 -26.023,18.286 -42.198,-1.406 -42.198,-1.406 l -7.385,24.263 c 0,0 8.616,20.923 34.11,35.517 31.667,18.127 81.407,5.626 108.66,-30.242 C 90.198,105.847 93.363,64.352 95.297,39.736 95.297,39.736 47.824,7.736 0,0 Z"
             style="fill:none;stroke:#6b7b7e;stroke-width:7;stroke-linecap:butt;stroke-linejoin:miter;stroke-miterlimit:10;stroke-dasharray:none;stroke-opacity:1"
             id="path40" />
        </g>
        <g
           id="g42"
           transform="translate(449.45,216.6404)">
          <path
             d="m 0,0 c 0,0 -2.11,49.935 -23.385,91.078 -21.275,41.143 -53.803,43.253 -69.803,28.132"
             style="fill:none;stroke:#6b7b7e;stroke-width:3.5;stroke-linecap:butt;stroke-linejoin:miter;stroke-miterlimit:10;stroke-dasharray:none;stroke-opacity:1"
             id="path44" />
        </g>
        <g
           id="g46"
           transform="translate(350.9871,340.4217)">
          <path
             d="m 0,0 c 0,0 9.847,27.604 47.474,26.022 37.626,-1.583 64.527,-32.704 78.418,-72.44 13.889,-39.736 12.659,-61.539 12.659,-61.539"
             style="fill:none;stroke:#6b7b7e;stroke-width:3.5;stroke-linecap:butt;stroke-linejoin:miter;stroke-miterlimit:10;stroke-dasharray:none;stroke-opacity:1"
             id="path48" />
        </g>
        <g
           id="g50"
           transform="translate(259.3826,217.8719)">
          <path
             d="m 0,0 c 0,0 15.824,-12.66 26.022,-57.319 10.198,-44.66 2.095,-94.366 -6.884,-110.974 -6.83,-12.632 -9.847,-22.329 -2.111,-27.076 7.737,-4.748 96.908,1.609 96.908,1.609 L 94.242,-40.44 31.297,35.165 Z"
             style="fill:#77769b;fill-opacity:1;fill-rule:nonzero;stroke:none"
             id="path52" />
        </g>
        <g
           id="g54"
           transform="translate(259.3826,217.8719)">
          <path
             d="m 0,0 c 0,0 15.824,-12.66 26.022,-57.319 10.198,-44.66 2.095,-94.366 -6.884,-110.974 -6.83,-12.632 -9.847,-22.329 -2.111,-27.076 7.737,-4.748 96.908,1.609 96.908,1.609 L 94.242,-40.44 31.297,35.165 Z"
             style="fill:none;stroke:#545173;stroke-width:7;stroke-linecap:butt;stroke-linejoin:miter;stroke-miterlimit:10;stroke-dasharray:none;stroke-opacity:1"
             id="path56" />
        </g>
        <g
           id="g58"
           transform="translate(173.2361,23.6316)">
          <path
             d="m 0,0 c -17.485,-3.085 -63.545,-0.867 -73.096,3.1 -9.55,3.967 -5.702,14.869 12.518,44.843 24.926,41.006 35.383,122.544 43.611,188.664 L 41.514,224.412 65.61,65.575"
             style="fill:#9495b9;fill-opacity:1;fill-rule:nonzero;stroke:#545173;stroke-width:7;stroke-linecap:butt;stroke-linejoin:miter;stroke-miterlimit:10;stroke-dasharray:none;stroke-opacity:1"
             id="path60" />
        </g>
        <g
           id="g62"
           transform="translate(255.8923,555.9813)">
          <path
             d="m 0,0 c 0,0 23.403,-34.435 37.267,-36.373 12.341,-1.725 27.13,7.752 27.13,7.752 -11.478,-31.453 -42.807,-46 -42.807,-46 0,0 15.08,1.726 35.565,16.59 0,0 -4.534,-36.329 -40.907,-91.186 C 4.047,-167.619 -15.031,-181.793 -35,-192.506 Z"
             style="fill:#c7cecf;fill-opacity:1;fill-rule:nonzero;stroke:none"
             id="path64" />
        </g>
        <g
           id="g66"
           transform="translate(255.8923,555.9813)">
          <path
             d="m 0,0 c 0,0 23.403,-34.435 37.267,-36.373 12.341,-1.725 27.13,7.752 27.13,7.752 -11.478,-31.453 -42.807,-46 -42.807,-46 0,0 15.08,1.726 35.565,16.59 0,0 -4.534,-36.329 -40.907,-91.186 C 4.047,-167.619 -15.031,-181.793 -35,-192.506 Z"
             style="fill:none;stroke:#6b7b7e;stroke-width:7;stroke-linecap:butt;stroke-linejoin:miter;stroke-miterlimit:10;stroke-dasharray:none;stroke-opacity:1"
             id="path68" />
        </g>
        <g
           id="g70"
           transform="translate(134.8484,347.4344)">
          <path
             d="M 0,0 C 0,0 -5.038,33.035 -16.695,66.783 -28.354,100.531 53.963,54.857 53.963,54.857 L 21.466,5.665 Z"
             style="fill:#c7cecf;fill-opacity:1;fill-rule:nonzero;stroke:none"
             id="path72" />
        </g>
        <g
           id="g74"
           transform="translate(134.8484,347.4344)">
          <path
             d="M 0,0 C 0,0 -5.038,33.035 -16.695,66.783 -28.354,100.531 53.963,54.857 53.963,54.857 L 21.466,5.665 Z"
             style="fill:none;stroke:#6b7b7e;stroke-width:7;stroke-linecap:butt;stroke-linejoin:miter;stroke-miterlimit:10;stroke-dasharray:none;stroke-opacity:1"
             id="path76" />
        </g>
        <g
           id="g78"
           transform="translate(5.7556,332.5281)">
          <path
             d="m 0,0 c 0,0 75.875,-2.386 118.956,12.521 0,0 -0.745,32.2 -14.013,85.268 L 73.341,245.962 17.292,220.323 c 0,0 -4.473,-13.565 -5.665,-49.491 C 10.435,134.906 10.401,52.155 8.646,28.323 7.603,14.161 0,0 0,0"
             style="fill:#c7cecf;fill-opacity:1;fill-rule:nonzero;stroke:none"
             id="path80" />
        </g>
        <g
           id="g82"
           transform="translate(5.7556,332.5281)">
          <path
             d="m 0,0 c 0,0 75.875,-2.386 118.956,12.521 0,0 -0.745,32.2 -14.013,85.268 L 73.341,245.962 17.292,220.323 c 0,0 -4.473,-13.565 -5.665,-49.491 C 10.435,134.906 10.401,52.155 8.646,28.323 7.603,14.161 0,0 0,0 Z"
             style="fill:none;stroke:#6b7b7e;stroke-width:7;stroke-linecap:butt;stroke-linejoin:miter;stroke-miterlimit:10;stroke-dasharray:none;stroke-opacity:1"
             id="path84" />
        </g>
        <g
           id="g86"
           transform="translate(295.0964,446.8631)">
          <path
             d="M 0,0 C 0,0 -22.956,-29.963 -53.962,-23.851"
             style="fill:none;stroke:#6b7b7e;stroke-width:3.5;stroke-linecap:butt;stroke-linejoin:miter;stroke-miterlimit:10;stroke-dasharray:none;stroke-opacity:1"
             id="path88" />
        </g>
        <g
           id="g90"
           transform="translate(309.1091,480.8416)">
          <path
             d="M 0,0 C 0,0 -30.068,-47.544 -69.273,-29.208"
             style="fill:none;stroke:#6b7b7e;stroke-width:3.5;stroke-linecap:butt;stroke-linejoin:miter;stroke-miterlimit:10;stroke-dasharray:none;stroke-opacity:1"
             id="path92" />
        </g>
        <g
           id="g94"
           transform="translate(96.24,337.5965)">
          <path
             d="M 0,0 C 0,0 -4.876,69.316 -22.168,119.851"
             style="fill:none;stroke:#6b7b7e;stroke-width:3.5;stroke-linecap:butt;stroke-linejoin:miter;stroke-miterlimit:10;stroke-dasharray:none;stroke-opacity:1"
             id="path96" />
        </g>
        <g
           id="g98"
           transform="translate(80.1404,335.5096)">
          <path
             d="M 0,0 C 0,0 4.024,51.577 -9.839,118.658"
             style="fill:none;stroke:#6b7b7e;stroke-width:3.5;stroke-linecap:butt;stroke-linejoin:miter;stroke-miterlimit:10;stroke-dasharray:none;stroke-opacity:1"
             id="path100" />
        </g>
        <g
           id="g102"
           transform="translate(45.2585,333.7205)">
          <path
             d="m 0,0 c 0,0 1.789,50.087 0,109.118 -1.789,59.031 22.658,124.323 22.658,124.323"
             style="fill:none;stroke:#6b7b7e;stroke-width:3.5;stroke-linecap:butt;stroke-linejoin:miter;stroke-miterlimit:10;stroke-dasharray:none;stroke-opacity:1"
             id="path104" />
        </g>
        <g
           id="g106"
           transform="translate(43.8542,444.117)">
          <path
             d="m 0,0 c 0,0 -8.882,44.448 0.51,78.101 9.391,33.651 16.994,39.354 16.994,39.354 l 191.068,31.975 2.012,-101.292 c 0,0 -14.646,-50.534 -14.087,-148.137 l 47.292,14.646 c 0,0 48.41,16.546 76.808,-29.068 28.397,-45.615 3.577,-95.702 3.577,-95.702 0,0 -9.167,-27.503 -8.161,-47.739 1.006,-20.237 -57.466,33.54 -57.466,33.54 0,0 -18.335,-17.777 -65.516,-5.814 0,0 -37.118,-9.168 -79.826,33.317 -42.708,42.485 -6.708,140.87 -6.708,140.87 z"
             style="fill:#9495b9;fill-opacity:1;fill-rule:nonzero;stroke:none"
             id="path108" />
        </g>
        <g
           id="g110"
           transform="translate(360.2908,201.8201)">
          <path
             d="m 0,0 c 0,0 11.218,0.432 16.683,-4.026 5.464,-4.459 24.839,-49.002 27.324,-105.56 2.6,-59.185 0.431,-74.063 -11.505,-81.685 -10.866,-6.939 -62.255,-4.882 -71.382,-4.458 -1.734,0.081 -3.448,0.472 -4.988,1.274 -3.377,1.758 -7.247,5.936 -2.44,15.552 7.479,14.956 20.853,44.725 20.134,93.765 -0.719,49.04 -16.251,78.81 -31.639,105.56"
             style="fill:#9495b9;fill-opacity:1;fill-rule:nonzero;stroke:#545173;stroke-width:7;stroke-linecap:butt;stroke-linejoin:miter;stroke-miterlimit:10;stroke-dasharray:none;stroke-opacity:1"
             id="path112" />
        </g>
        <g
           id="g114"
           transform="translate(239.8621,347.4861)">
          <path
             d="m 0,0 c 2.734,0.319 5.598,0.781 8.333,1.337 1.374,0.283 2.731,0.601 4.051,0.96 0.666,0.178 1.3,0.373 1.95,0.577 l 1.979,0.672 c 5.269,1.883 10.533,4.398 16.066,6.649 5.525,2.261 11.315,4.233 17.249,5.522 2.954,0.691 5.945,1.16 9.028,1.552 1.532,0.111 3.063,0.282 4.594,0.335 1.531,0.017 3.064,0.14 4.593,0.063 12.216,-0.197 24.459,-3.125 35.307,-9.056 5.394,-3.003 10.369,-6.776 14.728,-11.15 2.246,-2.134 4.142,-4.576 6.095,-6.964 l 2.618,-3.806 0.652,-0.953 c 0.206,-0.324 0.386,-0.663 0.579,-0.994 l 1.143,-1.998 1.139,-2 c 0.375,-0.669 0.668,-1.375 1.005,-2.061 0.639,-1.388 1.341,-2.753 1.923,-4.163 l 1.65,-4.263 c 0.57,-1.415 0.938,-2.891 1.416,-4.333 l 0.675,-2.177 c 0.201,-0.731 0.366,-1.471 0.549,-2.205 0.346,-1.475 0.748,-2.94 1.044,-4.423 l 0.812,-4.462 c 0.302,-1.483 0.408,-2.99 0.621,-4.484 0.193,-1.497 0.385,-2.994 0.463,-4.499 l 0.309,-4.509 c 0.054,-3.01 0.182,-6.021 0.033,-9.027 -0.023,-3.012 -0.334,-6.006 -0.55,-9.006 -0.386,-2.985 -0.688,-5.98 -1.267,-8.939 -0.463,-2.975 -1.191,-5.907 -1.875,-8.843 l -1.22,-4.366 c -0.409,-1.451 -0.855,-2.809 -1.281,-4.218 l -2.562,-8.375 c -0.877,-2.781 -1.611,-5.597 -2.551,-8.34 -1.821,-5.514 -3.304,-11.064 -4.798,-16.557 -1.502,-5.514 -2.526,-11.057 -3.377,-17.025 -2.021,5.679 -2.397,11.923 -1.842,17.923 0.497,6.04 2.048,11.81 3.44,17.541 l 0.537,2.148 c 0.188,0.712 0.424,1.409 0.625,2.117 l 1.266,4.222 2.573,8.405 c 0.42,1.391 0.884,2.813 1.267,4.177 l 1.142,4.085 c 0.638,2.759 1.328,5.51 1.762,8.317 0.548,2.785 0.828,5.616 1.196,8.432 0.2,2.834 0.501,5.663 0.518,8.506 0.144,2.84 0.017,5.677 -0.029,8.515 l -0.293,4.245 c -0.07,1.417 -0.253,2.822 -0.435,4.226 -0.202,1.399 -0.295,2.82 -0.58,4.204 l -0.759,4.171 c -0.276,1.384 -0.653,2.742 -0.973,4.115 -0.171,0.684 -0.322,1.373 -0.509,2.052 l -0.628,2.012 c -0.443,1.332 -0.778,2.707 -1.306,4.005 l -1.515,3.92 c -0.533,1.293 -1.178,2.531 -1.759,3.8 -0.306,0.625 -0.573,1.275 -0.913,1.881 l -1.036,1.811 -1.033,1.811 c -0.175,0.3 -0.337,0.609 -0.523,0.902 l -0.589,0.855 -2.352,3.425 c -1.76,2.13 -3.445,4.329 -5.455,6.226 -3.893,3.905 -8.321,7.269 -13.153,9.963 C 90.055,7.796 78.896,10.491 67.744,10.668 66.35,10.742 64.959,10.622 63.566,10.611 62.175,10.563 60.796,10.404 59.41,10.309 56.692,9.96 53.897,9.53 51.154,8.886 45.65,7.688 40.319,5.879 35.021,3.714 29.718,1.563 24.412,-0.984 18.66,-3.049 L 16.485,-3.787 C 15.741,-4.021 14.977,-4.257 14.229,-4.455 12.727,-4.864 11.234,-5.212 9.744,-5.52 6.747,-6.126 3.831,-6.599 0.756,-6.959 Z"
             style="fill:#545173;fill-opacity:1;fill-rule:nonzero;stroke:none"
             id="path116" />
        </g>
        <g
           id="g118"
           transform="translate(234.3699,214.4646)">
          <path
             d="m 0,0 c 5.273,-0.743 10.773,-1.249 16.169,-1.478 5.414,-0.24 10.828,-0.2 16.113,0.307 1.328,0.109 2.614,0.318 3.93,0.485 1.325,0.227 2.658,0.425 3.969,0.696 2.635,0.496 5.235,1.108 7.787,1.841 5.114,1.442 10.009,3.423 14.633,5.976 2.315,1.272 4.569,2.679 6.78,4.19 l 0.83,0.566 0.659,0.543 c 0.424,0.382 0.899,0.656 1.296,1.111 0.4,0.443 0.82,0.864 1.246,1.283 0.429,0.415 0.788,0.945 1.19,1.411 3.166,3.866 5.472,8.734 7.411,13.672 1.952,4.962 3.556,10.121 4.895,15.382 1.339,5.272 2.397,10.623 3.19,16.208 1.361,-5.491 1.535,-11.25 1.096,-16.91 C 90.73,39.611 89.607,33.981 87.824,28.51 85.992,23.055 83.641,17.706 80.055,12.752 79.583,12.144 79.18,11.506 78.646,10.923 78.118,10.338 77.583,9.754 77.028,9.192 76.492,8.62 75.79,8.131 75.172,7.604 L 74.215,6.841 73.328,6.235 C 70.965,4.621 68.513,3.087 65.971,1.691 60.891,-1.114 55.444,-3.315 49.892,-4.88 47.116,-5.676 44.315,-6.335 41.506,-6.864 40.102,-7.152 38.693,-7.363 37.287,-7.603 35.855,-7.788 34.402,-8.02 32.969,-8.137 27.218,-8.688 21.521,-8.72 15.865,-8.471 10.188,-8.225 4.637,-7.722 -1.064,-6.919 Z"
             style="fill:#545173;fill-opacity:1;fill-rule:nonzero;stroke:none"
             id="path120" />
        </g>
        <g
           id="g122"
           transform="translate(206.866,218.4978)">
          <path
             d="m 0,0 c 0,0 -32.973,4.995 -51.883,30.329 -18.911,25.333 -20.339,56.019 -17.484,83.493 2.854,27.475 13.202,47.099 11.418,69.221"
             style="fill:none;stroke:#545173;stroke-width:7;stroke-linecap:butt;stroke-linejoin:miter;stroke-miterlimit:10;stroke-dasharray:none;stroke-opacity:1"
             id="path124" />
        </g>
        <g
           id="g126"
           transform="translate(199.4451,241.4881)">
          <path
             d="m 0,0 c 0,0 -1.241,-54.478 -6.068,-110.609 -4.828,-56.132 -18.205,-87.163 -26.204,-102.058 -8,-14.895 -3.586,-19.033 1.93,-21.791 5.517,-2.759 70.837,-9.315 84.405,8.051 10.343,13.24 17.846,86.242 7.034,146.277 C 51.856,-28.825 36.548,3.447 36.548,3.447"
             style="fill:#9495b9;fill-opacity:1;fill-rule:nonzero;stroke:none"
             id="path128" />
        </g>
        <g
           id="g130"
           transform="translate(199.4441,241.4881)">
          <path
             d="m 0,0 c 0.675,-2.961 1.07,-5.921 1.37,-8.877 0.176,-1.479 0.246,-2.955 0.371,-4.434 l 0.21,-4.429 C 2.145,-23.645 2.123,-29.544 1.939,-35.436 1.726,-41.326 1.616,-47.224 1.361,-53.114 L 0.352,-70.773 c -0.72,-11.771 -1.564,-23.537 -2.535,-35.297 -0.966,-11.77 -2.232,-23.619 -4.172,-35.339 -1.923,-11.732 -4.454,-23.387 -7.752,-34.859 -3.299,-11.466 -7.445,-22.747 -12.766,-33.544 -0.652,-1.355 -1.361,-2.685 -2.059,-4.02 l -0.968,-1.895 c -0.319,-0.619 -0.64,-1.237 -0.901,-1.862 -1.141,-2.471 -2.056,-5.039 -2.266,-7.277 -0.137,-1.129 -0.037,-2.099 0.241,-2.847 0.273,-0.756 0.718,-1.377 1.488,-2.021 0.17,-0.165 0.404,-0.317 0.628,-0.473 0.208,-0.16 0.469,-0.31 0.726,-0.461 0.244,-0.154 0.524,-0.303 0.81,-0.449 l 0.408,-0.212 c 0.055,-0.01 0.105,-0.025 0.154,-0.048 0.379,-0.127 1.047,-0.299 1.69,-0.433 0.643,-0.143 1.342,-0.264 2.021,-0.388 5.575,-0.932 11.401,-1.454 17.172,-1.834 5.79,-0.343 11.596,-0.526 17.381,-0.432 5.78,0.1 11.559,0.383 17.223,1.113 2.843,0.33 5.63,0.84 8.385,1.411 2.732,0.624 5.404,1.381 7.923,2.35 2.493,0.989 4.811,2.24 6.584,3.779 0.497,0.356 0.815,0.8 1.204,1.203 0.419,0.379 0.653,0.888 0.989,1.326 0.299,0.513 0.589,1.081 0.884,1.629 l 0.802,1.811 c 1.992,5.069 3.313,10.722 4.405,16.364 2.154,11.343 3.335,22.975 4.073,34.606 0.728,11.641 0.903,23.329 0.629,34.997 -0.287,11.668 -1.06,23.323 -2.417,34.894 -0.699,5.781 -1.496,11.55 -2.521,17.271 -1.046,5.735 -2.16,11.473 -3.42,17.172 -1.254,5.702 -2.627,11.377 -4.112,17.021 -0.689,2.836 -1.443,5.657 -2.161,8.487 -0.787,2.809 -1.564,5.625 -2.41,8.418 l -5,16.796 c -1.694,5.605 -3.228,11.239 -4.163,17.263 2.012,-2.317 3.625,-4.866 5.115,-7.457 1.48,-2.6 2.771,-5.285 3.94,-8.016 2.377,-5.449 4.466,-11.015 6.283,-16.665 0.932,-2.818 1.759,-5.667 2.663,-8.495 0.833,-2.847 1.717,-5.682 2.508,-8.543 1.497,-5.743 2.902,-11.509 4.172,-17.305 1.283,-5.795 2.413,-11.614 3.479,-17.459 1.051,-5.868 1.865,-11.766 2.579,-17.669 1.386,-11.814 2.171,-23.676 2.462,-35.542 0.28,-11.867 0.102,-23.742 -0.64,-35.6 -0.755,-11.857 -1.948,-23.699 -4.184,-35.494 -1.155,-5.9 -2.484,-11.774 -4.795,-17.679 l -0.985,-2.223 c -0.394,-0.751 -0.778,-1.496 -1.223,-2.249 -0.527,-0.75 -0.986,-1.565 -1.635,-2.212 -0.617,-0.671 -1.217,-1.391 -1.909,-1.915 -2.684,-2.318 -5.658,-3.835 -8.621,-5.023 -2.977,-1.148 -5.981,-1.991 -8.987,-2.676 -3.005,-0.626 -6.015,-1.169 -9.021,-1.521 -6.013,-0.772 -12.013,-1.063 -17.998,-1.167 -5.986,-0.097 -11.955,0.091 -17.916,0.444 -5.971,0.397 -11.888,0.916 -17.928,1.922 -0.767,0.141 -1.519,0.271 -2.312,0.446 -0.795,0.173 -1.562,0.343 -2.576,0.687 -0.295,0.11 -0.587,0.229 -0.875,0.354 l -0.573,0.295 c -0.367,0.19 -0.736,0.385 -1.118,0.621 -0.377,0.222 -0.752,0.443 -1.135,0.722 -0.381,0.265 -0.759,0.522 -1.133,0.856 -1.499,1.217 -2.902,3.016 -3.602,5.043 -0.382,1.011 -0.538,2.021 -0.663,3.02 -0.044,0.968 -0.079,1.949 0.042,2.837 0.377,3.636 1.572,6.663 2.865,9.528 0.311,0.733 0.666,1.42 1.02,2.111 l 1.042,2.035 c 0.664,1.274 1.341,2.542 1.965,3.839 5.088,10.324 9.108,21.229 12.314,32.381 3.207,11.156 5.684,22.547 7.568,34.047 1.905,11.511 3.143,23.09 4.105,34.782 0.966,11.703 1.806,23.422 2.523,35.151 l 1.006,17.598 c 0.369,5.865 0.829,11.726 1.147,17.596 0.338,5.868 0.805,11.73 1.421,17.59 l 0.525,4.394 c 0.222,1.463 0.394,2.928 0.663,4.39 C -1.391,-5.848 -0.816,-2.924 0,0"
             style="fill:#545173;fill-opacity:1;fill-rule:nonzero;stroke:none"
             id="path132" />
        </g>
        <g
           id="g134"
           transform="translate(58.2917,555.8748)">
          <path
             d="m 0,0 c 0,0 -15.021,-16.891 -16.921,-60.552 -2.421,-55.658 15.579,-72.157 15.579,-72.157"
             style="fill:none;stroke:#545173;stroke-width:7;stroke-linecap:butt;stroke-linejoin:miter;stroke-miterlimit:10;stroke-dasharray:none;stroke-opacity:1"
             id="path136" />
        </g>
        <g
           id="g138"
           transform="translate(29.2703,456.8885)">
          <path
             d="m 0,0 c 1.357,1.22 2.929,2.214 4.595,3.034 1.674,0.804 3.468,1.412 5.337,1.777 1.865,0.383 3.827,0.485 5.758,0.227 1.946,-0.199 3.823,-0.897 5.524,-1.819 L 19.931,0.507 C 18.335,0.97 16.822,1.553 15.192,1.783 13.585,2.063 11.927,2.258 10.234,2.182 8.545,2.131 6.826,1.921 5.115,1.545 3.403,1.17 1.687,0.676 0,0"
             style="fill:#000000;fill-opacity:1;fill-rule:nonzero;stroke:none"
             id="path140" />
        </g>
        <g
           id="g142"
           transform="translate(27.5564,464.118)">
          <path
             d="m 0,0 c 1.462,1.477 3.321,2.562 5.299,3.325 1.983,0.761 4.128,1.22 6.3,1.256 2.159,0.009 4.373,-0.2 6.427,-0.909 1.063,-0.26 2.02,-0.774 3.016,-1.187 0.96,-0.486 1.868,-1.061 2.76,-1.645 l -1.541,-2.574 c -0.905,0.348 -1.742,0.81 -2.62,1.172 l -1.32,0.518 C 17.89,0.152 17.444,0.303 16.993,0.43 16.543,0.562 16.099,0.716 15.652,0.864 l -1.37,0.313 C 13.83,1.313 13.367,1.381 12.902,1.447 12.438,1.506 11.974,1.617 11.504,1.638 9.625,1.87 7.708,1.773 5.777,1.526 3.847,1.255 1.912,0.77 0,0"
             style="fill:#000000;fill-opacity:1;fill-rule:nonzero;stroke:none"
             id="path144" />
        </g>
        <g
           id="g146"
           transform="translate(63.3699,456.031)">
          <path
             d="m 0,0 c 0.05,3.896 0.39,7.663 0.765,11.396 0.205,1.864 0.361,3.726 0.672,5.546 0.323,1.821 0.644,3.625 1.253,5.386 L 7.625,21.52 C 7.608,19.577 7.25,17.687 6.806,15.83 6.346,13.976 5.693,12.17 5.018,10.381 4.337,8.593 3.585,6.831 2.769,5.094 1.93,3.363 1.052,1.648 0,0"
             style="fill:#000000;fill-opacity:1;fill-rule:nonzero;stroke:none"
             id="path148" />
        </g>
        <g
           id="g150">
          <g
             id="g152" />
          <g
             id="g182"
             mask="url(#mask162)">
            <g
               id="g184" />
            <g
               id="g284">
              <g
                 clip-path="url(#clipPath188)"
                 id="g282">
                <g
                   transform="translate(43.0222,490.4656)"
                   id="g238">
                  <path
                     d="m 0,0 c 0,0 -1.453,-37.956 5.926,-44.608 7.379,-6.653 14.422,10.173 14.422,10.173 0,0 3.745,12.466 5.367,23.255 1.621,10.789 -9.839,38.013 -9.839,38.013 z"
                     style="fill:#ffffff;fill-opacity:1;fill-rule:nonzero;stroke:none"
                     id="path236" />
                </g>
                <g
                   id="g268">
                  <g
                     id="g240" />
                  <g
                     mask="url(#mask198)"
                     id="g266">
                    <g
                       id="g242" />
                    <g
                       id="g264">
                      <g
                         clip-path="url(#clipPath220)"
                         id="g262">
                        <g
                           id="g252">
                          <g
                             clip-path="url(#clipPath224)"
                             id="g250">
                            <g
                               id="g248">
                              <g
                                 id="g246">
                                <path
                                   d="m 47.551,472.292 c 0,15.588 4.942,28.224 11.04,28.224 6.097,0 11.04,-12.636 11.04,-28.224 0,-15.587 -4.943,-28.224 -11.04,-28.224 -6.098,0 -11.04,12.637 -11.04,28.224"
                                   style="fill:url(#linearGradient234);stroke:none"
                                   id="path244" />
                              </g>
                            </g>
                          </g>
                        </g>
                        <g
                           transform="translate(46.3162,462.7849)"
                           id="g256">
                          <path
                             d="M 0,0 10.902,-0.27 5.127,-5.182 -0.432,-7.881 Z"
                             style="fill:#f2ee86;fill-opacity:1;fill-rule:nonzero;stroke:none"
                             id="path254" />
                        </g>
                        <g
                           transform="translate(54.5203,458.4666)"
                           id="g260">
                          <path
                             d="m 0,0 -9.176,-7.61 0.323,7.125 9.447,2.428 z"
                             style="fill:#fbfadf;fill-opacity:1;fill-rule:nonzero;stroke:none"
                             id="path258" />
                        </g>
                      </g>
                    </g>
                  </g>
                </g>
                <g
                   transform="translate(51.3152,471.118)"
                   id="g272">
                  <path
                     d="m 0,0 c 0,11.132 2.845,20.155 6.354,20.155 3.508,0 6.353,-9.023 6.353,-20.155 0,-11.131 -2.845,-20.154 -6.353,-20.154 C 2.845,-20.154 0,-11.131 0,0"
                     style="fill:#000000;fill-opacity:1;fill-rule:nonzero;stroke:none"
                     id="path270" />
                </g>
                <g
                   transform="translate(55.4851,477.4109)"
                   id="g276">
                  <path
                     d="M 0,0 C -0.897,4.263 0.342,8.132 2.768,8.642 5.193,9.152 7.887,6.11 8.783,1.848 9.68,-2.414 8.44,-6.283 6.015,-6.793 3.589,-7.304 0.896,-4.262 0,0"
                     style="fill:#ffffff;fill-opacity:1;fill-rule:nonzero;stroke:none"
                     id="path274" />
                </g>
                <g
                   transform="translate(55.8435,462.8103)"
                   id="g280">
                  <path
                     d="M 0,0 C -0.333,1.582 0.301,3.055 1.416,3.289 2.531,3.523 3.705,2.432 4.038,0.85 4.37,-0.733 3.736,-2.205 2.621,-2.44 1.507,-2.675 0.333,-1.582 0,0"
                     style="fill:#ffffff;fill-opacity:1;fill-rule:nonzero;stroke:none"
                     id="path278" />
                </g>
              </g>
            </g>
          </g>
        </g>
        <g
           id="g286"
           transform="translate(73.5544,477.3758)">
          <path
             d="m 0,0 -43.495,32.024 c 0,0 0.581,-13.131 8.647,-20.747 0,0 8.454,-3.84 32.267,-12.939 0,0 1.42,0.759 2.581,1.662"
             style="fill:#000000;fill-opacity:1;fill-rule:nonzero;stroke:none"
             id="path288" />
        </g>
        <g
           id="g290"
           transform="translate(65.0486,458.1609)">
          <path
             d="m 0,0 c 0,0 -2.643,-5.565 -10.295,-9.043 -7.651,-3.478 -15.233,-3.131 -19.476,-8.486 -4.244,-5.357 -0.417,-28.312 35.475,-44.519 35.894,-16.207 91.054,-5.078 115.748,5.983"
             style="fill:#9495b9;fill-opacity:1;fill-rule:nonzero;stroke:none"
             id="path292" />
        </g>
        <g
           id="g294"
           transform="translate(65.0486,458.1599)">
          <path
             d="m 0,0 c -0.495,-2.313 -1.746,-4.446 -3.28,-6.314 -1.539,-1.889 -3.474,-3.461 -5.58,-4.751 -4.203,-2.598 -9.001,-3.666 -12.818,-5.059 -1.901,-0.718 -3.468,-1.61 -4.532,-2.724 -0.318,-0.234 -0.527,-0.567 -0.804,-0.839 -0.067,-0.119 -0.171,-0.247 -0.268,-0.536 -0.203,-0.536 -0.338,-1.333 -0.368,-2.173 -0.038,-1.718 0.284,-3.631 0.879,-5.499 0.584,-1.874 1.41,-3.726 2.407,-5.508 1.991,-3.576 4.658,-6.863 7.662,-9.841 3.036,-2.957 6.394,-5.644 9.99,-8.027 3.597,-2.385 7.4,-4.502 11.329,-6.397 0.988,-0.455 1.976,-0.951 2.963,-1.372 l 2.967,-1.241 3.032,-1.106 3.086,-0.977 c 8.301,-2.432 17.006,-3.729 25.779,-4.142 8.776,-0.44 17.625,-0.085 26.416,0.865 4.394,0.484 8.813,0.871 13.189,1.59 2.188,0.349 4.379,0.698 6.564,1.081 1.095,0.183 2.186,0.382 3.275,0.599 1.092,0.197 2.189,0.381 3.277,0.6 8.759,1.609 17.439,3.502 26.287,5.707 -3.792,-2.561 -7.9,-4.618 -12.086,-6.452 -4.194,-1.823 -8.512,-3.344 -12.886,-4.669 -2.188,-0.659 -4.396,-1.251 -6.622,-1.767 -2.216,-0.555 -4.454,-1.025 -6.697,-1.463 -4.489,-0.849 -8.993,-1.713 -13.552,-2.186 -9.107,-0.983 -18.305,-1.358 -27.516,-0.896 -9.204,0.437 -18.442,1.791 -27.426,4.424 l -3.35,1.061 -3.312,1.208 -3.262,1.365 c -1.082,0.462 -2.108,0.978 -3.164,1.464 -4.18,2.016 -8.262,4.286 -12.17,6.876 -3.906,2.591 -7.616,5.545 -11.027,8.871 -3.382,3.357 -6.461,7.117 -8.859,11.414 -1.198,2.144 -2.224,4.42 -2.98,6.845 -0.758,2.421 -1.248,4.994 -1.19,7.784 0.058,1.405 0.236,2.866 0.819,4.443 0.275,0.773 0.737,1.631 1.339,2.416 0.493,0.546 0.949,1.137 1.509,1.614 1.086,1.013 2.342,1.732 3.559,2.356 1.23,0.596 2.451,1.026 3.633,1.404 4.72,1.428 8.891,1.959 12.828,3.31 C -7.068,-5.324 -3.3,-3.271 0,0"
             style="fill:#545173;fill-opacity:1;fill-rule:nonzero;stroke:none"
             id="path296" />
        </g>
        <g
           id="g298"
           transform="translate(51.9373,407.7146)">
          <path
             d="m 0,0 c 0.951,0.479 1.72,0.803 2.571,1.146 0.83,0.34 1.665,0.64 2.499,0.934 0.834,0.295 1.681,0.542 2.516,0.812 l 2.538,0.691 c 3.395,0.852 6.851,1.377 10.302,1.597 1.72,0.152 3.456,0.1 5.169,0.099 0.859,-0.045 1.717,-0.121 2.569,-0.18 0.427,-0.036 0.853,-0.055 1.276,-0.104 L 30.71,4.804 C 34.1,4.406 37.367,3.399 40.519,2.311 37.205,2.839 33.909,3.248 30.613,3.056 L 29.386,3.027 C 28.977,3.002 28.567,2.949 28.16,2.911 L 25.726,2.657 C 24.114,2.371 22.513,2.143 20.942,1.718 17.798,0.954 14.736,-0.081 11.814,-1.387 L 9.649,-2.408 C 8.946,-2.783 8.232,-3.133 7.546,-3.522 6.857,-3.911 6.174,-4.301 5.517,-4.719 4.873,-5.115 4.172,-5.583 3.686,-5.952 Z"
             style="fill:#545173;fill-opacity:1;fill-rule:nonzero;stroke:none"
             id="path300" />
        </g>
        <g
           id="g302"
           transform="translate(54.114,430.2556)">
          <path
             d="M 0,0 C 0,0 7.34,-2.459 9.913,4.011 9.913,4.011 10.254,-11.88 0,0"
             style="fill:#545173;fill-opacity:1;fill-rule:nonzero;stroke:none"
             id="path304" />
        </g>
        <g
           id="g306"
           transform="translate(11.9802,537.9383)">
          <path
             d="m 0,0 c 0,0 25.94,12.789 64.67,16.167 47.851,4.174 56.344,3.137 98.21,11.342 41.866,8.204 61.291,34.989 61.291,34.989 l 4.102,20.993 c 0,0 -28.956,29.68 -88.799,25.82 C 79.631,105.45 16.65,67.444 0,0"
             style="fill:#c7cecf;fill-opacity:1;fill-rule:nonzero;stroke:none"
             id="path308" />
        </g>
        <g
           id="g310"
           transform="translate(11.9802,537.9383)">
          <path
             d="m 0,0 c 0,0 25.94,12.789 64.67,16.167 47.851,4.174 56.344,3.137 98.21,11.342 41.866,8.204 61.291,34.989 61.291,34.989 l 4.102,20.993 c 0,0 -28.956,29.68 -88.799,25.82 C 79.631,105.45 16.65,67.444 0,0 Z"
             style="fill:none;stroke:#6b7b7e;stroke-width:7;stroke-linecap:butt;stroke-linejoin:miter;stroke-miterlimit:10;stroke-dasharray:none;stroke-opacity:1"
             id="path312" />
        </g>
        <g
           id="g314"
           transform="translate(215.8816,636.7523)">
          <path
             d="M 0,0 C 0,0 -27.267,-0.965 -43.676,-18.581 -60.084,-36.196 -75.045,-76.493 -75.045,-76.493"
             style="fill:none;stroke:#6b7b7e;stroke-width:3.5;stroke-linecap:butt;stroke-linejoin:miter;stroke-miterlimit:10;stroke-dasharray:none;stroke-opacity:1"
             id="path316" />
        </g>
        <g
           id="g318"
           transform="translate(88.7146,555.6741)">
          <path
             d="M 0,0 C 0,0 19.667,66.841 83.25,91.937"
             style="fill:none;stroke:#6b7b7e;stroke-width:3.5;stroke-linecap:butt;stroke-linejoin:miter;stroke-miterlimit:10;stroke-dasharray:none;stroke-opacity:1"
             id="path320" />
        </g>
        <g
           id="g322"
           transform="translate(48.6589,549.8826)">
          <path
             d="M 0,0 C 0,0 22.079,61.533 87.352,96.039"
             style="fill:none;stroke:#6b7b7e;stroke-width:3.5;stroke-linecap:butt;stroke-linejoin:miter;stroke-miterlimit:10;stroke-dasharray:none;stroke-opacity:1"
             id="path324" />
        </g>
        <g
           id="g326"
           transform="translate(247.4929,325.8328)">
          <path
             d="m 0,0 c -1.794,1.158 -3.271,2.689 -4.59,4.332 -1.327,1.647 -2.437,3.469 -3.339,5.403 l -0.328,0.732 c -0.055,0.126 -0.11,0.233 -0.164,0.377 l -0.155,0.501 c -0.235,0.73 -0.294,1.203 -0.427,1.79 -0.193,1.083 -0.364,2.126 -0.465,3.157 -0.233,2.064 -0.372,4.101 -0.46,6.131 -0.17,4.06 -0.124,8.096 -0.137,12.129 l 0.022,6.045 0.215,6.034 c 0.643,16.082 1.68,32.124 3.117,48.157 0.73,8.016 1.561,16.026 2.603,24.036 1.04,8.042 2.374,15.956 3.651,23.882 2.628,15.863 5.426,31.642 8.74,47.461 l 6.84,-1.488 C 11.864,173.123 9.06,157.329 6.449,141.568 5.178,133.672 3.848,125.776 2.833,117.921 1.808,110.036 0.983,102.103 0.261,94.156 -1.165,78.262 -2.195,62.305 -2.833,46.356 L -3.046,40.377 -3.344,34.405 C -3.527,30.427 -3.58,26.447 -3.668,22.494 l -0.109,-5.885 c 0.003,-0.968 -0.014,-1.923 0.018,-2.832 0.027,-0.401 0.04,-0.933 0.082,-1.17 l 0.019,-0.228 c 0.016,-0.097 0.052,-0.224 0.077,-0.335 l 0.164,-0.689 C -2.513,7.671 -1.334,3.983 0,0"
             style="fill:#545173;fill-opacity:1;fill-rule:nonzero;stroke:none"
             id="path328" />
        </g>
        <g
           id="g330"
           transform="translate(207.2634,569.4754)">
          <path
             d="m 0,0 c 0,0 7.949,41.636 40.581,63.262 2.249,1.49 5.258,1.106 6.985,-0.966 5.691,-6.826 17.644,-23.797 21.348,-49.525 4.923,-34.19 -3.192,-75.034 -30.865,-94.99"
             style="fill:#9495b9;fill-opacity:1;fill-rule:nonzero;stroke:none"
             id="path332" />
        </g>
        <g
           id="g334"
           transform="translate(207.2634,569.4754)">
          <path
             d="m 0,0 c -0.16,2.634 0.077,5.243 0.446,7.817 0.371,2.578 0.932,5.12 1.625,7.625 1.419,4.999 3.305,9.875 5.612,14.559 2.356,4.658 4.971,9.207 7.921,13.562 3.068,4.271 6.466,8.328 10.209,12.066 3.742,3.738 7.832,7.154 12.235,10.132 l 0.409,0.285 0.212,0.146 0.334,0.204 c 0.442,0.271 0.918,0.499 1.408,0.683 0.979,0.373 2.027,0.57 3.078,0.578 2.1,0.026 4.236,-0.747 5.834,-2.17 0.199,-0.177 0.398,-0.356 0.573,-0.554 0.172,-0.185 0.388,-0.425 0.461,-0.523 l 0.63,-0.774 c 0.426,-0.513 0.826,-1.04 1.232,-1.564 0.812,-1.048 1.588,-2.117 2.345,-3.198 6.062,-8.642 10.642,-18.22 13.834,-28.225 1.606,-5.002 2.804,-10.13 3.636,-15.31 0.864,-5.171 1.36,-10.355 1.601,-15.567 0.428,-10.415 -0.25,-20.889 -2.257,-31.164 -0.518,-2.565 -1.083,-5.124 -1.774,-7.654 -0.331,-1.269 -0.688,-2.532 -1.083,-3.785 -0.341,-1.268 -0.839,-2.49 -1.292,-3.723 -1.878,-4.907 -4.05,-9.725 -6.791,-14.233 -5.422,-9.005 -13.158,-16.804 -22.389,-21.432 3.6,3.693 6.85,7.519 9.707,11.577 2.882,4.038 5.273,8.352 7.479,12.721 2.179,4.387 4.094,8.914 5.524,13.615 l 1.068,3.524 c 0.37,1.17 0.704,2.352 1.015,3.542 0.647,2.372 1.178,4.779 1.667,7.194 1.891,9.678 2.539,19.626 2.133,29.514 -0.229,4.938 -0.703,9.89 -1.516,14.742 -0.779,4.852 -1.899,9.65 -3.4,14.326 -2.982,9.347 -7.276,18.316 -12.894,26.32 -0.7,0.999 -1.417,1.989 -2.162,2.948 -0.372,0.48 -0.739,0.966 -1.126,1.43 l -0.572,0.704 c -0.12,0.155 -0.127,0.142 -0.168,0.192 -0.032,0.045 -0.075,0.073 -0.112,0.108 -0.301,0.268 -0.709,0.423 -1.149,0.419 -0.218,-10e-4 -0.438,-0.042 -0.646,-0.122 -0.103,-0.036 -0.207,-0.083 -0.302,-0.147 L 42.52,60.347 42.341,60.222 41.968,59.962 C 37.952,57.246 34.207,54.119 30.761,50.676 27.315,47.23 24.155,43.479 21.306,39.489 18.365,35.562 15.705,31.397 13.343,27.055 10.983,22.711 8.736,18.283 6.616,13.754 4.457,9.232 2.36,4.673 0,0"
             style="fill:#545173;fill-opacity:1;fill-rule:nonzero;stroke:none"
             id="path336" />
        </g>
        <g
           id="g338"
           transform="translate(253.0291,590.7615)">
          <path
             d="M 0,0 C 0,0 7.45,-35.123 -12.24,-65.987"
             style="fill:#9495b9;fill-opacity:1;fill-rule:nonzero;stroke:none"
             id="path340" />
        </g>
        <g
           id="g342"
           transform="translate(253.0291,590.7615)">
          <path
             d="m 0,0 c 1.942,-5.472 2.812,-11.278 3.14,-17.079 0.309,-5.814 -0.088,-11.675 -1.093,-17.433 -0.44,-2.892 -1.231,-5.718 -1.97,-8.545 -0.455,-1.391 -0.931,-2.776 -1.423,-4.151 -0.252,-0.687 -0.471,-1.382 -0.75,-2.058 l -0.9,-2.002 c -2.266,-5.384 -5.531,-10.315 -9.244,-14.719 2.116,5.411 4.409,10.539 5.932,15.966 l 0.645,1.997 c 0.201,0.67 0.358,1.354 0.54,2.029 l 1.078,4.049 c 0.554,2.741 1.255,5.441 1.66,8.208 0.964,5.498 1.649,11.061 1.998,16.681 C -0.002,-11.432 0.091,-5.779 0,0"
             style="fill:#545173;fill-opacity:1;fill-rule:nonzero;stroke:none"
             id="path344" />
        </g>
        <g
           id="g346"
           transform="translate(179.4138,421.867)">
          <path
             d="m 0,0 c 0.075,2.353 -0.168,4.646 -0.837,6.66 -0.679,2.02 -1.857,3.614 -3.411,4.599 -1.568,0.977 -3.481,1.454 -5.513,1.685 -2.046,0.22 -4.194,0.178 -6.407,0.183 l -0.459,3.973 c 2.38,0.511 4.884,0.647 7.433,0.312 2.525,-0.386 5.204,-1.277 7.301,-3.175 C 0.222,12.361 1.365,9.615 1.478,7.09 1.613,4.548 1.076,2.117 0,0"
             style="fill:#000000;fill-opacity:1;fill-rule:nonzero;stroke:none"
             id="path348" />
        </g>
        <g
           id="g350"
           transform="translate(196.0955,430.4217)">
          <path
             d="M 0,0 C -0.69,2.549 -2.138,4.651 -3.903,6.179 -5.69,7.707 -7.87,8.616 -10.16,9.122 l -0.846,0.215 -0.886,0.125 -1.756,0.255 c -1.213,0.037 -2.4,0.167 -3.619,0.168 l -1.836,-0.028 c -0.613,-0.007 -1.221,0.049 -1.843,-0.024 -1.24,-0.071 -2.48,-0.144 -3.741,-0.124 l -0.53,3.965 c 1.317,0.266 2.652,0.439 3.988,0.615 1.341,0.144 2.72,0.103 4.079,0.118 0.677,0.041 1.375,-0.11 2.06,-0.167 0.688,-0.083 1.376,-0.149 2.059,-0.25 l 2.048,-0.514 1.015,-0.262 0.994,-0.404 C -6.341,11.815 -3.778,10.175 -2.107,7.812 -0.437,5.49 0.401,2.633 0,0"
             style="fill:#000000;fill-opacity:1;fill-rule:nonzero;stroke:none"
             id="path352" />
        </g>
        <g
           id="g354"
           transform="translate(106.4949,447.9656)">
          <path
             d="m 0,0 c -1.28,1.798 -2.084,3.793 -2.664,5.831 -0.556,2.045 -0.858,4.143 -1.031,6.247 -0.166,2.107 -0.122,4.22 -0.015,6.325 0.052,1.053 0.116,2.107 0.204,3.159 0.052,0.524 0.091,1.051 0.154,1.575 l 0.268,1.558 5.907,-1.05 C 2.67,22.684 2.514,21.725 2.306,20.771 2.127,19.814 1.955,18.854 1.82,17.89 1.554,15.959 1.398,14.019 1.227,12.071 1.048,10.122 0.932,8.166 0.779,6.177 0.604,4.182 0.42,2.164 0,0"
             style="fill:#000000;fill-opacity:1;fill-rule:nonzero;stroke:none"
             id="path356" />
        </g>
        <g
           id="g358"
           transform="translate(202.0427,486.2049)">
          <path
             d="m 0,0 c -0.854,-5.933 -2.39,-11.738 -4.487,-17.312 -2.075,-5.584 -4.646,-10.979 -7.78,-16.036 -3.133,-5.055 -6.844,-9.764 -11.07,-13.947 -4.18,-4.193 -9.133,-7.785 -14.938,-9.509 3.766,4.69 7.532,8.745 11.178,12.995 3.598,4.27 6.852,8.809 9.701,13.595 2.881,4.765 5.386,9.768 7.344,14.974 1.94,5.213 3.311,10.62 4.113,16.086 z"
             style="fill:#000000;fill-opacity:1;fill-rule:nonzero;stroke:none"
             id="path360" />
        </g>
        <g
           id="g362">
          <g
             id="g364" />
          <g
             id="g394"
             mask="url(#mask374)">
            <g
               id="g396" />
            <g
               id="g496">
              <g
                 clip-path="url(#clipPath400)"
                 id="g494">
                <g
                   transform="translate(199.573,486.6277)"
                   id="g450">
                  <path
                     d="m 0,0 c -1.348,-9.476 -4.655,-19.437 -10,-29.031 -16.587,-29.772 -46.513,-44.726 -66.842,-33.401 -14.364,8.003 -20.094,26.987 -16.367,47.94 C -93.119,-13.988 0.166,1.169 0,0"
                     style="fill:#ffffff;fill-opacity:1;fill-rule:nonzero;stroke:none"
                     id="path448" />
                </g>
                <g
                   id="g480">
                  <g
                     id="g452" />
                  <g
                     mask="url(#mask410)"
                     id="g478">
                    <g
                       id="g454" />
                    <g
                       id="g476">
                      <g
                         clip-path="url(#clipPath432)"
                         id="g474">
                        <g
                           id="g464">
                          <g
                             clip-path="url(#clipPath436)"
                             id="g462">
                            <g
                               id="g460">
                              <g
                                 id="g458">
                                <path
                                   d="m 110.243,473.277 c 3.59,20.999 18.578,35.958 33.476,33.411 14.899,-2.548 24.066,-21.635 20.475,-42.635 -3.59,-21 -18.578,-35.958 -33.476,-33.412 -14.899,2.548 -24.066,21.636 -20.475,42.636"
                                   style="fill:url(#linearGradient446);stroke:none"
                                   id="path456" />
                              </g>
                            </g>
                          </g>
                        </g>
                        <g
                           transform="translate(142.4138,450.1619)"
                           id="g468">
                          <path
                             d="M 0,0 21.466,-16.155 30.298,2.627 -1.342,5.98 Z"
                             style="fill:#fbfadf;fill-opacity:1;fill-rule:nonzero;stroke:none"
                             id="path466" />
                        </g>
                        <g
                           transform="translate(147.78,451.1707)"
                           id="g472">
                          <path
                             d="M 0,0 25.155,-5.255 23.255,6.655 -1.789,5.808 Z"
                             style="fill:#f2ee86;fill-opacity:1;fill-rule:nonzero;stroke:none"
                             id="path470" />
                        </g>
                      </g>
                    </g>
                  </g>
                </g>
                <g
                   transform="translate(116.1677,467.617)"
                   id="g484">
                  <path
                     d="M 0,0 C 1.98,14.798 12.21,25.64 22.849,24.217 33.487,22.793 40.506,9.643 38.525,-5.155 36.545,-19.954 26.315,-30.796 15.677,-29.372 5.038,-27.948 -1.98,-14.798 0,0"
                     style="fill:#000000;fill-opacity:1;fill-rule:nonzero;stroke:none"
                     id="path482" />
                </g>
                <g
                   transform="translate(129.3406,456.9334)"
                   id="g488">
                  <path
                     d="M 0,0 C -1.735,2.108 -1.7,5.006 0.079,6.471 1.859,7.936 4.709,7.414 6.445,5.305 8.181,3.196 8.146,0.299 6.366,-1.166 4.586,-2.631 1.736,-2.109 0,0"
                     style="fill:#ffffff;fill-opacity:1;fill-rule:nonzero;stroke:none"
                     id="path486" />
                </g>
                <g
                   transform="translate(136.6433,473.5017)"
                   id="g492">
                  <path
                     d="M 0,0 C -3.209,7.081 -1.665,14.701 3.449,17.02 8.563,19.337 15.312,15.476 18.521,8.395 21.73,1.312 20.187,-6.307 15.072,-8.625 9.958,-10.943 3.21,-7.081 0,0"
                     style="fill:#ffffff;fill-opacity:1;fill-rule:nonzero;stroke:none"
                     id="path490" />
                </g>
              </g>
            </g>
          </g>
        </g>
        <g
           id="g498"
           transform="translate(96.7917,473.9295)">
          <path
             d="m 0,0 c 1.055,-1.624 2.577,-2.613 4.719,-2.763 0,0 14.409,-2.036 98.237,10.17 18.606,2.709 27.383,22.812 27.383,22.812 0,0 -23.281,-12.126 -62.73,-19.886 C 28.161,2.572 0,0 0,0"
             style="fill:#000000;fill-opacity:1;fill-rule:nonzero;stroke:none"
             id="path500" />
        </g>
        <g
           id="g502">
          <g
             id="g504" />
          <g
             id="g620">
            <g
               clip-path="url(#clipPath508)"
               id="g618">
              <g
                 id="g616">
                <g
                   clip-path="url(#clipPath512)"
                   id="g614">
                  <g
                     transform="translate(339.6218,291.0428)"
                     id="g516">
                    <path
                       d="m 0,0 c 3.006,-1.861 4.021,-1.756 5.762,-3.417 1.361,-1.298 2.687,-3.301 2.189,-5.179 -0.679,-2.52 -3.472,-3.458 -5.516,-5.289 -1.408,-1.335 -2.642,-3.996 -4.434,-4.248 -0.397,-0.055 -0.822,0.007 -1.282,0.23 -0.007,0.003 -0.013,0.007 -0.02,0.009 0.533,-0.358 1.135,-0.562 1.78,-0.598 0.234,-0.01 0.473,0.002 0.718,0.036 0.583,0.082 1.199,0.295 1.837,0.659 1.94,1.109 3.713,2.629 5.759,3.544 1.713,0.776 3.469,2.504 3.828,4.97 0.375,2.605 -0.767,6.587 -2.564,7.588 -1.246,0.706 -2.642,0.718 -4.06,0.783 C 2.638,-0.858 1.266,-0.764 0,0"
                       style="fill:#ccced2;fill-opacity:1;fill-rule:nonzero;stroke:none"
                       id="path514" />
                  </g>
                  <g
                     transform="translate(334.9861,293.0555)"
                     id="g520">
                    <path
                       d="m 0,0 c -0.785,-0.11 -1.649,-0.518 -2.621,-1.392 -2.227,-2.002 -2.18,-7.39 -0.809,-9.487 1.161,-1.78 2.184,-3.435 2.438,-4.88 0.346,-1.929 1.14,-3.562 2.327,-4.147 0.007,-0.003 0.013,-0.007 0.019,-0.01 0.46,-0.223 0.885,-0.285 1.283,-0.23 1.792,0.252 3.026,2.914 4.433,4.249 2.045,1.831 4.838,2.768 5.517,5.289 0.498,1.878 -0.828,3.88 -2.19,5.178 C 8.656,-3.769 7.642,-3.874 4.636,-2.013 4.591,-1.984 4.544,-1.955 4.497,-1.926 3.219,-1.096 1.826,0.257 0,0 M 1.03,-8.249 C 0.666,-8.3 0.467,-7.456 0.31,-6.893 c -0.162,0.578 0.681,0.677 1.073,0.805 0.014,0.005 0.028,0.008 0.042,0.01 0.354,0.05 0.416,-0.84 0.565,-1.405 C 2.152,-8.068 1.465,-8.11 1.073,-8.238 1.059,-8.243 1.044,-8.247 1.03,-8.249 m 4.477,-1.605 c -0.119,-0.017 -0.245,-0.011 -0.359,0 -0.389,0.044 -0.733,0.713 -0.783,1.497 -0.009,0.199 0.262,0.191 0.281,0.429 0.029,0.286 -0.169,0.83 -0.053,1.011 0.102,0.149 0.261,0.209 0.405,0.23 0.089,0.012 0.171,0.009 0.233,0.004 0.388,-0.036 0.749,-1.62 0.79,-2.404 0.03,-0.555 -0.225,-0.727 -0.514,-0.767 M -1,-10.153 c -0.252,-0.035 -0.545,0.121 -0.656,0.541 -0.122,0.455 -0.183,1.064 0.085,1.147 0.006,0.002 0.011,0.003 0.017,0.004 0.13,0.019 0.286,-0.223 0.464,-0.336 0.169,-0.112 0.369,-0.084 0.431,-0.311 0.13,-0.455 0.003,-0.936 -0.263,-1.028 -0.025,-0.008 -0.052,-0.013 -0.078,-0.017 m 3.859,-2.488 c -0.345,-0.048 -0.672,0.153 -0.766,0.495 -0.104,0.375 0.055,1.116 0.447,1.244 0.023,0.006 0.045,0.011 0.067,0.014 0.377,0.054 0.805,-0.441 0.905,-0.804 0.105,-0.385 -0.13,-0.79 -0.521,-0.918 -0.044,-0.015 -0.088,-0.025 -0.132,-0.031"
                       style="fill:#fefefe;fill-opacity:1;fill-rule:nonzero;stroke:none"
                       id="path518" />
                  </g>
                  <g
                     transform="translate(333.4324,284.5945)"
                     id="g524">
                    <path
                       d="m 0,0 c -0.006,-0.001 -0.012,-0.002 -0.018,-0.004 -0.267,-0.083 -0.207,-0.692 -0.085,-1.147 0.112,-0.42 0.405,-0.577 0.657,-0.541 0.026,0.004 0.052,0.009 0.078,0.017 0.265,0.092 0.392,0.573 0.263,1.028 C 0.833,-0.42 0.633,-0.448 0.464,-0.336 0.286,-0.223 0.13,0.019 0,0"
                       style="fill:#ccced2;fill-opacity:1;fill-rule:nonzero;stroke:none"
                       id="path522" />
                  </g>
                  <g
                     transform="translate(336.4109,286.9773)"
                     id="g528">
                    <path
                       d="m 0,0 c -0.014,-0.002 -0.027,-0.005 -0.042,-0.01 -0.392,-0.128 -1.234,-0.227 -1.073,-0.804 0.157,-0.564 0.356,-1.408 0.72,-1.357 0.014,0.002 0.029,0.006 0.043,0.011 0.392,0.128 1.08,0.17 0.917,0.755 C 0.416,-0.84 0.354,0.05 0,0"
                       style="fill:#ccced2;fill-opacity:1;fill-rule:nonzero;stroke:none"
                       id="path526" />
                  </g>
                  <g
                     transform="translate(337.5935,282.1678)"
                     id="g532">
                    <path
                       d="m 0,0 c -0.022,-0.003 -0.045,-0.008 -0.067,-0.015 -0.392,-0.128 -0.551,-0.868 -0.448,-1.244 0.094,-0.342 0.421,-0.543 0.767,-0.494 0.044,0.006 0.088,0.016 0.132,0.03 0.39,0.128 0.626,0.534 0.52,0.918 C 0.805,-0.441 0.377,0.054 0,0"
                       style="fill:#ccced2;fill-opacity:1;fill-rule:nonzero;stroke:none"
                       id="path530" />
                  </g>
                  <g
                     transform="translate(339.9841,286.368)"
                     id="g536">
                    <path
                       d="m 0,0 c -0.145,-0.021 -0.303,-0.08 -0.405,-0.229 -0.116,-0.181 0.082,-0.725 0.052,-1.011 -0.018,-0.239 -0.289,-0.231 -0.28,-0.43 0.05,-0.783 0.394,-1.452 0.783,-1.497 0.114,-0.011 0.24,-0.017 0.359,0 0.289,0.04 0.544,0.213 0.514,0.768 C 0.982,-1.615 0.621,-0.031 0.233,0.005 0.171,0.01 0.089,0.013 0,0"
                       style="fill:#ccced2;fill-opacity:1;fill-rule:nonzero;stroke:none"
                       id="path534" />
                  </g>
                  <g
                     transform="translate(361.905,304.9763)"
                     id="g540">
                    <path
                       d="M 0,0 C 0.865,-0.687 1.457,-3.474 1.237,-4.373 1.148,-4.736 0.906,-4.896 0.577,-4.942 0.166,-5 -0.382,-4.883 -0.938,-4.77 c -0.56,0.114 -1.138,0.224 -1.59,0.161 -0.063,-0.009 -0.122,-0.021 -0.179,-0.037 -1.44,-0.411 -2.994,-1.8 -3.818,-1.989 -0.022,-0.005 -0.043,-0.009 -0.066,-0.012 -0.754,-0.106 -1.476,0.824 -1.358,1.527 -0.717,-1.871 -1.081,-4.708 -0.497,-7.589 1.249,-0.66 3.014,-0.64 4.564,-0.903 -1.242,-0.589 -2.487,-1.216 -3.746,-1.393 -0.394,-0.056 -0.791,-0.066 -1.188,-0.018 0.326,-1.762 1.371,-6.456 3.124,-7.237 -0.296,1.058 1.456,3.012 2.635,3.687 0.181,0.103 0.375,0.163 0.578,0.192 0.479,0.067 1.007,-0.039 1.537,-0.149 0.521,-0.113 1.044,-0.224 1.517,-0.157 0.249,0.035 0.485,0.119 0.7,0.277 0.702,0.516 0.794,1.992 1.391,2.693 0.754,0.879 2.09,0.367 2.746,1.376 0.825,1.278 -0.508,3.554 0.276,3.664 0.008,10e-4 0.015,0.002 0.023,0.003 0.677,0.059 1.862,-0.62 2.212,-1.324 C 6.353,-6.583 2.96,-1.788 0,0 m 1.926,-9.722 c -0.541,-0.076 -0.837,1.155 -1.066,1.981 -0.23,0.858 0.999,1.004 1.571,1.193 0.019,0.006 0.039,0.01 0.058,0.013 0.528,0.074 0.604,-1.232 0.833,-2.059 C 3.553,-9.452 2.559,-9.519 1.987,-9.708 1.966,-9.715 1.945,-9.719 1.926,-9.722 m -3.1,-0.837 c -0.251,-0.035 -0.536,0.122 -0.647,0.534 -0.131,0.462 -0.192,1.072 0.076,1.155 0.006,0.002 0.013,0.004 0.018,0.005 0.136,0.018 0.286,-0.223 0.463,-0.337 0.17,-0.121 0.378,-0.092 0.439,-0.311 0.123,-0.464 -0.005,-0.936 -0.271,-1.028 -0.025,-0.008 -0.051,-0.014 -0.078,-0.018 m 2.456,-3.461 c -0.236,-0.033 -0.512,0.117 -0.621,0.51 -0.119,0.438 -0.176,1.021 0.074,1.101 0.007,0.002 0.013,0.004 0.02,0.005 0.128,0.017 0.275,-0.215 0.444,-0.322 0.161,-0.113 0.362,-0.085 0.412,-0.295 0.12,-0.438 0.007,-0.899 -0.252,-0.981 -0.025,-0.008 -0.05,-0.014 -0.077,-0.018"
                       style="fill:#fefefe;fill-opacity:1;fill-rule:nonzero;stroke:none"
                       id="path538" />
                  </g>
                  <g
                     transform="translate(367.5935,294.2996)"
                     id="g544">
                    <path
                       d="m 0,0 c -0.784,-0.11 0.549,-2.387 -0.276,-3.664 -0.657,-1.009 -1.993,-0.497 -2.746,-1.376 -0.597,-0.701 -0.69,-2.177 -1.391,-2.693 -0.216,-0.159 -0.451,-0.243 -0.7,-0.277 -0.474,-0.067 -0.996,0.044 -1.518,0.156 -0.529,0.111 -1.057,0.216 -1.536,0.15 -0.203,-0.029 -0.397,-0.089 -0.578,-0.192 -1.18,-0.675 -2.932,-2.629 -2.636,-3.687 0.225,-0.823 0.853,-1.08 1.509,-0.987 0.702,0.098 1.437,0.596 1.746,1.227 0.259,0.528 0.667,0.75 1.153,0.819 0.513,0.072 1.113,-0.028 1.719,-0.124 0.606,-0.102 1.216,-0.202 1.752,-0.126 0.171,0.024 0.335,0.066 0.488,0.131 1.627,0.683 2.837,2.016 3.729,3.949 0.69,1.513 2.352,3.664 1.519,5.373 C 1.885,-0.617 0.699,0.062 0.022,0.003 0.015,0.002 0.008,0.001 0,0"
                       style="fill:#ccced2;fill-opacity:1;fill-rule:nonzero;stroke:none"
                       id="path542" />
                  </g>
                  <g
                     transform="translate(353.4587,292.2674)"
                     id="g548">
                    <path
                       d="m 0,0 c -0.608,-0.931 -0.615,-1.658 -0.37,-2.314 0.397,-0.048 0.794,-0.038 1.188,0.018 1.259,0.177 2.504,0.804 3.746,1.393 C 3.015,-0.64 1.249,-0.66 0,0"
                       style="fill:#ccced2;fill-opacity:1;fill-rule:nonzero;stroke:none"
                       id="path546" />
                  </g>
                  <g
                     transform="translate(360.7566,305.1834)"
                     id="g552">
                    <path
                       d="m 0,0 c -0.737,-0.104 -1.456,-0.553 -1.964,-0.967 -0.724,-0.601 -0.622,-2.322 -1.319,-3.002 -0.315,-0.308 -0.749,-0.433 -1.208,-0.498 -0.219,-0.031 -0.443,-0.048 -0.661,-0.064 -0.213,-0.018 -0.42,-0.034 -0.613,-0.061 -0.391,-0.055 -0.72,-0.155 -0.902,-0.406 -0.071,-0.1 -0.114,-0.211 -0.134,-0.329 -0.118,-0.703 0.605,-1.633 1.359,-1.527 0.022,0.003 0.044,0.007 0.065,0.012 0.824,0.189 2.378,1.578 3.818,1.989 0.057,0.016 0.117,0.028 0.179,0.037 0.452,0.063 1.03,-0.047 1.59,-0.161 0.557,-0.113 1.104,-0.23 1.516,-0.172 0.329,0.046 0.571,0.206 0.66,0.569 0.219,0.899 -0.372,3.685 -1.238,4.373 -0.067,0.053 -0.135,0.095 -0.206,0.12 C 0.635,0.025 0.315,0.045 0,0"
                       style="fill:#ccced2;fill-opacity:1;fill-rule:nonzero;stroke:none"
                       id="path550" />
                  </g>
                  <g
                     transform="translate(364.3943,298.4412)"
                     id="g556">
                    <path
                       d="m 0,0 c -0.02,-0.003 -0.039,-0.007 -0.059,-0.013 -0.571,-0.189 -1.8,-0.335 -1.57,-1.193 0.229,-0.826 0.525,-2.057 1.066,-1.981 0.019,0.003 0.04,0.007 0.061,0.014 0.571,0.19 1.565,0.256 1.335,1.114 C 0.604,-1.231 0.527,0.074 0,0"
                       style="fill:#ccced2;fill-opacity:1;fill-rule:nonzero;stroke:none"
                       id="path554" />
                  </g>
                  <g
                     transform="translate(360.1785,296.1111)"
                     id="g560">
                    <path
                       d="m 0,0 c -0.006,-0.001 -0.013,-0.003 -0.019,-0.005 -0.267,-0.083 -0.207,-0.692 -0.076,-1.155 0.112,-0.411 0.397,-0.569 0.648,-0.533 0.026,0.004 0.052,0.009 0.078,0.017 0.265,0.092 0.393,0.565 0.27,1.029 -0.06,0.218 -0.268,0.189 -0.438,0.31 C 0.285,-0.223 0.136,0.019 0,0"
                       style="fill:#ccced2;fill-opacity:1;fill-rule:nonzero;stroke:none"
                       id="path558" />
                  </g>
                  <g
                     transform="translate(362.6599,292.5721)"
                     id="g564">
                    <path
                       d="m 0,0 c -0.007,-0.001 -0.013,-0.003 -0.02,-0.005 -0.25,-0.08 -0.193,-0.663 -0.074,-1.1 0.109,-0.394 0.385,-0.543 0.621,-0.51 0.027,0.004 0.052,0.01 0.077,0.017 0.259,0.082 0.373,0.543 0.252,0.981 -0.05,0.211 -0.251,0.182 -0.412,0.296 C 0.275,-0.215 0.128,0.018 0,0"
                       style="fill:#ccced2;fill-opacity:1;fill-rule:nonzero;stroke:none"
                       id="path562" />
                  </g>
                  <g
                     transform="translate(337.7185,341.7449)"
                     id="g568">
                    <path
                       d="m 0,0 c -1.896,-0.268 -3.689,-2.011 -4.999,-5.405 -0.855,-2.219 -0.083,-5.325 -0.381,-7.893 -0.251,-2.224 -1.924,-7.155 -2.005,-10.873 -0.099,-4.41 1.092,-11.836 3.218,-17.813 -1.119,4.121 3.515,10.339 10.365,13.891 2.337,1.208 4.63,1.949 6.679,2.238 3.96,0.556 7.016,-0.577 7.76,-3.297 -1.785,8.85 -6.368,12.439 -10.225,17.456 C 6.438,-6.523 5.125,-2.221 3.163,-0.87 2.118,-0.153 1.044,0.146 0,0 m -5.636,-29.929 c -0.738,1.405 -0.976,4.605 -0.684,6.825 0.288,2.13 0.807,3.774 1.453,5.064 0.779,2.108 0.892,5.82 1.38,9.15 0.266,1.845 0.671,3.627 1.473,5.031 0.456,0.781 1.315,1.546 2.182,1.777 0.092,0.025 0.184,0.045 0.275,0.058 0.578,0.082 1.148,-0.097 1.58,-0.687 L 1.962,-2.72 c -1.496,-0.21 -2.433,-0.992 -3.091,-2.151 -0.677,-1.176 -1.056,-2.764 -1.31,-4.508 -0.29,-2.039 -0.398,-4.243 -0.694,-6.237 0.928,0.921 1.915,1.495 2.778,1.898 0.939,0.441 1.75,0.737 2.137,1.027 0.042,-1.374 -0.668,-1.955 -1.661,-2.422 -0.9,-0.427 -1.881,-0.991 -2.771,-1.952 -1.134,-1.231 -2.14,-3.089 -2.588,-6.213 -0.259,-1.772 -0.515,-5.196 -0.398,-6.651 m 15.126,8.88 c -0.488,-0.069 -1.068,0.075 -1.647,0.453 -1.27,0.83 -2.045,2.465 -1.739,3.662 0.163,0.651 0.615,1.035 1.197,1.117 0.488,0.069 1.068,-0.076 1.646,-0.454 1.271,-0.83 2.054,-2.463 1.747,-3.661 -0.167,-0.65 -0.62,-1.035 -1.204,-1.117 m -4.134,-1.172 c -0.631,-0.089 -1.201,0.559 -1.301,1.538 -0.107,1.048 0.375,2.087 1.064,2.312 0.051,0.017 0.102,0.028 0.152,0.035 0.638,0.09 1.208,-0.558 1.306,-1.529 0.109,-1.057 -0.373,-2.096 -1.07,-2.322 -0.05,-0.015 -0.101,-0.027 -0.151,-0.034 m 3.112,-2.735 c -0.442,-0.062 -0.892,0.337 -1.117,1.067 -0.311,0.983 -0.119,2.181 0.428,2.695 0.137,0.125 0.284,0.196 0.43,0.216 0.442,0.063 0.893,-0.332 1.12,-1.071 0.31,-0.973 0.118,-2.181 -0.43,-2.685 -0.137,-0.128 -0.284,-0.201 -0.431,-0.222"
                       style="fill:#90ba40;fill-opacity:1;fill-rule:nonzero;stroke:none"
                       id="path566" />
                  </g>
                  <g
                     transform="translate(350.5955,315.8894)"
                     id="g572">
                    <path
                       d="m 0,0 c -2.049,-0.288 -4.342,-1.029 -6.679,-2.237 -6.85,-3.552 -11.484,-9.771 -10.365,-13.892 0.744,-2.721 3.8,-3.853 7.76,-3.297 2.05,0.288 4.342,1.03 6.679,2.238 C 4.247,-13.646 8.888,-7.425 7.76,-3.297 7.016,-0.576 3.96,0.557 0,0 m -1.13,-2.049 0.308,0.753 2.725,0.174 -0.417,-0.656 C 2.909,-1.807 4.073,-2.169 4.834,-2.862 L 5.928,-2.21 6.747,-4.257 5.79,-4.826 C 5.957,-6.488 5.008,-8.543 3.297,-10.531 l 0.879,-0.273 -1.574,-1.356 -0.604,0.27 c -1.406,-1.332 -3.135,-2.583 -5.068,-3.601 -1.256,-0.662 -2.493,-1.172 -3.669,-1.53 l -0.24,-0.718 -1.402,-0.198 0.201,0.547 c -0.296,-0.061 -0.587,-0.111 -0.871,-0.151 -2.143,-0.302 -3.92,0.002 -4.98,0.899 l -1.037,-0.617 -0.819,2.046 0.826,0.493 c -0.221,1.667 0.711,3.743 2.426,5.756 -0.529,0.058 -0.882,0.089 -0.948,0.079 -0.003,0 -0.005,0 -0.007,-10e-4 l 1.277,1.651 1.054,-0.286 c 1.403,1.323 3.123,2.564 5.046,3.578 1.772,0.934 3.507,1.564 5.083,1.894"
                       style="fill:#619623;fill-opacity:1;fill-rule:nonzero;stroke:none"
                       id="path570" />
                  </g>
                  <g
                     transform="translate(349.4656,313.8406)"
                     id="g576">
                    <path
                       d="m 0,0 c -1.576,-0.33 -3.312,-0.96 -5.083,-1.895 -1.923,-1.013 -3.644,-2.254 -5.046,-3.578 l 5.685,-1.544 2.078,1.239 L 0,0 m 2.616,0.271 -3.151,-4.958 6.499,3.874 C 5.203,-0.12 4.039,0.242 2.616,0.271 M 6.92,-2.777 -0.235,-7.043 4.427,-8.482 c 1.711,1.988 2.66,4.043 2.493,5.705 m -18.425,-4.138 c -1.715,-2.013 -2.647,-4.089 -2.426,-5.756 l 8.423,5.02 c -1.83,0.235 -4.561,0.581 -5.997,0.736 m 10.033,-0.864 -2.174,-1.296 -1.963,-5.897 c 1.175,0.358 2.413,0.868 3.669,1.53 1.933,1.018 3.662,2.269 5.068,3.601 l -4.6,2.062 m -3.584,-2.137 -7.845,-4.677 c 1.06,-0.897 2.837,-1.201 4.98,-0.899 0.284,0.04 0.575,0.09 0.871,0.151 l 1.994,5.425"
                       style="fill:#ddea79;fill-opacity:1;fill-rule:nonzero;stroke:none"
                       id="path574" />
                  </g>
                  <g
                     transform="translate(356.5232,313.6795)"
                     id="g580">
                    <path
                       d="m 0,0 -1.094,-0.652 -6.499,-3.873 -1.203,-1.892 1.503,-0.465 7.155,4.266 0.957,0.569 L 0,0 m -9.424,-5.617 -2.078,-1.238 1.275,-0.347 0.117,0.068 -0.031,-0.092 0.052,-0.014 0.665,1.623 m -0.326,-1.454 -0.278,-0.185 0.116,-0.032 -0.305,-0.166 -0.486,-1.46 2.174,1.296 -1.221,0.547 m -2.815,-0.419 -8.423,-5.02 -0.826,-0.493 0.818,-2.046 1.037,0.617 7.846,4.677 0.675,1.835 0.394,0.233 c -0.322,0.042 -0.863,0.113 -1.521,0.197"
                       style="fill:#619623;fill-opacity:1;fill-rule:nonzero;stroke:none"
                       id="path578" />
                  </g>
                  <g
                     transform="translate(338.282,308.6541)"
                     id="g584">
                    <path
                       d="m 0,0 -1.276,-1.65 c 0.002,10e-4 0.004,10e-4 0.006,10e-4 0.067,0.009 0.419,-0.022 0.949,-0.08 1.435,-0.155 4.167,-0.5 5.997,-0.736 0.658,-0.084 1.199,-0.154 1.521,-0.196 L 8.015,-2.177 6.739,-1.83 1.055,-0.286 0,0 M 8.101,-2.2 8.024,-2.429 8.329,-2.263 8.213,-2.23 8.121,-2.292 8.152,-2.215 8.101,-2.2"
                       style="fill:#619623;fill-opacity:1;fill-rule:nonzero;stroke:none"
                       id="path582" />
                  </g>
                  <g
                     transform="translate(349.7732,314.5935)"
                     id="g588">
                    <path
                       d="m 0,0 -0.308,-0.753 -2.366,-5.778 -0.665,-1.623 -0.031,-0.077 0.092,0.061 0.278,0.185 -0.011,0.005 0.937,0.658 0.028,-0.009 1.203,1.892 3.152,4.957 0.417,0.656 z"
                       style="fill:#619623;fill-opacity:1;fill-rule:nonzero;stroke:none"
                       id="path586" />
                  </g>
                  <g
                     transform="translate(346.4128,306.5457)"
                     id="g592">
                    <path
                       d="m 0,0 -0.116,-0.068 -0.818,-0.485 -0.394,-0.233 -0.675,-1.835 -1.994,-5.425 -0.201,-0.547 1.402,0.197 0.239,0.719 1.964,5.897 0.487,1.46 0.076,0.228 z"
                       style="fill:#619623;fill-opacity:1;fill-rule:nonzero;stroke:none"
                       id="path590" />
                  </g>
                  <g
                     transform="translate(347.699,307.2713)"
                     id="g596">
                    <path
                       d="m 0,0 -0.937,-0.658 0.011,-0.005 1.221,-0.547 4.6,-2.061 0.603,-0.271 1.574,1.356 -0.879,0.273 -4.662,1.439 -1.503,0.465 z"
                       style="fill:#619623;fill-opacity:1;fill-rule:nonzero;stroke:none"
                       id="path594" />
                  </g>
                  <g
                     transform="translate(342.99,323.409)"
                     id="g600">
                    <path
                       d="m 0,0 c -0.051,-0.007 -0.102,-0.019 -0.152,-0.035 -0.69,-0.225 -1.171,-1.264 -1.065,-2.312 0.101,-0.979 0.67,-1.627 1.302,-1.538 0.05,0.007 0.101,0.019 0.15,0.034 0.698,0.226 1.179,1.265 1.071,2.322 C 1.207,-0.558 0.638,0.09 0,0"
                       style="fill:#619623;fill-opacity:1;fill-rule:nonzero;stroke:none"
                       id="path598" />
                  </g>
                  <g
                     transform="translate(345.9275,320.7674)"
                     id="g604">
                    <path
                       d="m 0,0 c -0.146,-0.021 -0.293,-0.092 -0.43,-0.217 -0.547,-0.513 -0.739,-1.712 -0.428,-2.694 0.225,-0.731 0.675,-1.129 1.117,-1.068 0.147,0.022 0.294,0.094 0.431,0.222 0.548,0.504 0.74,1.712 0.43,2.686 C 0.893,-0.332 0.442,0.062 0,0"
                       style="fill:#619623;fill-opacity:1;fill-rule:nonzero;stroke:none"
                       id="path602" />
                  </g>
                  <g
                     transform="translate(345.0193,325.9275)"
                     id="g608">
                    <path
                       d="m 0,0 c -0.582,-0.082 -1.034,-0.466 -1.196,-1.116 -0.307,-1.197 0.468,-2.832 1.738,-3.662 0.579,-0.378 1.159,-0.523 1.647,-0.453 0.584,0.082 1.038,0.466 1.205,1.117 C 3.7,-2.917 2.917,-1.283 1.646,-0.453 1.068,-0.075 0.488,0.069 0,0"
                       style="fill:#619623;fill-opacity:1;fill-rule:nonzero;stroke:none"
                       id="path606" />
                  </g>
                  <g
                     transform="translate(338.1619,339.7205)"
                     id="g612">
                    <path
                       d="m 0,0 c -0.092,-0.013 -0.184,-0.032 -0.275,-0.058 -0.868,-0.23 -1.726,-0.996 -2.182,-1.777 -0.803,-1.403 -1.207,-3.186 -1.474,-5.03 -0.487,-3.33 -0.6,-7.042 -1.38,-9.151 -0.645,-1.29 -1.165,-2.933 -1.453,-5.063 -0.292,-2.221 -0.053,-5.421 0.685,-6.825 -0.117,1.455 0.139,4.879 0.397,6.65 0.449,3.124 1.454,4.983 2.588,6.213 0.891,0.961 1.871,1.525 2.772,1.952 0.993,0.467 1.703,1.048 1.661,2.422 -0.388,-0.29 -1.198,-0.586 -2.138,-1.026 -0.862,-0.404 -1.849,-0.978 -2.777,-1.899 0.296,1.994 0.403,4.198 0.693,6.238 0.255,1.744 0.634,3.332 1.311,4.507 0.658,1.16 1.594,1.942 3.091,2.152 L 1.58,-0.687 C 1.147,-0.097 0.578,0.082 0,0"
                       style="fill:#619623;fill-opacity:1;fill-rule:nonzero;stroke:none"
                       id="path610" />
                  </g>
                </g>
              </g>
            </g>
          </g>
        </g>
      </g>
    </g>
  </g>
</svg>
